<svg viewBox="0 0 98 98" fill="none" xmlns="http://www.w3.org/2000/svg">
  <circle cx="49" cy="49" r="46.5" fill="black" fillOpacity="0.8" stroke="url(#paint0_angular_1_26)" strokeWidth="5" />
  <circle cx="71.1094" cy="37" r="11.25" stroke="white" strokeWidth="1.5" />
  <path
    d="M27.9387 24.2254C28.5173 23.232 29.9524 23.232 30.531 24.2254L33.7514 29.7544C33.9634 30.1183 34.3185 30.3764 34.7301 30.4655L40.9837 31.8197C42.1073 32.063 42.5508 33.4279 41.7848 34.2852L37.5215 39.0565C37.2409 39.3705 37.1053 39.788 37.1477 40.207L37.7922 46.573C37.908 47.7168 36.747 48.5603 35.695 48.0968L29.8398 45.5165C29.4544 45.3467 29.0154 45.3467 28.63 45.5165L22.7748 48.0968C21.7228 48.5603 20.5617 47.7168 20.6775 46.573L21.3221 40.207C21.3645 39.788 21.2288 39.3705 20.9482 39.0565L16.685 34.2852C15.919 33.4279 16.3625 32.063 17.486 31.8197L23.7396 30.4655C24.1512 30.3764 24.5064 30.1183 24.7183 29.7544L27.9387 24.2254Z"
    fill="#F2C94C" />
  <path
    d="M50.252 79.416C49.6591 80.3145 48.3409 80.3145 47.748 79.416L36.6784 62.6396C36.0204 61.6423 36.7356 60.3135 37.9304 60.3135H60.0696C61.2644 60.3135 61.9796 61.6423 61.3216 62.6396L50.252 79.416Z"
    fill="#D9D9D9" />
  <defs>
    <radialGradient id="paint0_angular_1_26" cx="0" cy="0" r="1" gradientUnits="userSpaceOnUse"
      gradientTransform="translate(49 49) rotate(90) scale(44)">
      <stop stopColor="#E25767" />
      <stop offset="0.21875" stopColor="#56275D" />
      <stop offset="0.411458" stopColor="#3353C4" />
      <stop offset="0.59375" stopColor="#EEC5C8" />
      <stop offset="0.770833" stopColor="#530343" />
      <stop offset="1" stopColor="#E25767" />
    </radialGradient>
  </defs>
</svg>